<svg width="84px" height="38px"  viewBox="0 0 84 84" xmlns="http://www.w3.org/2000/svg"><title>ionicons-v5-p</title><path d="M58.664 36.74a13.04 13.04 0 0 0 9.283 -3.846l12.633 -12.625c0.999 -0.999 1.091 -2.625 0.139 -3.673a2.625 2.625 0 0 0 -3.801 -0.092L65.658 27.756a2.016 2.016 0 0 1 -2.85 0c-0.786 -0.784 -0.743 -2.11 0.041 -2.894l11.21 -11.21a2.625 2.625 0 0 0 -0.092 -3.8A2.563 2.563 0 0 0 72.232 9.188a2.741 2.741 0 0 0 -1.938 0.804l-11.201 11.199a2.016 2.016 0 0 1 -2.85 0c-0.784 -0.784 -0.743 -2.11 0.041 -2.894L67.495 7.089a2.625 2.625 0 0 0 -0.092 -3.8A2.563 2.563 0 0 0 65.668 2.625a2.745 2.745 0 0 0 -1.938 0.804L51.105 16.054a13.041 13.041 0 0 0 -3.846 9.284v1.35A2.625 2.625 0 0 1 46.49 28.547l-5.842 5.844a0.656 0.656 0 0 1 -0.929 0L11.291 5.96a2.625 2.625 0 0 0 -3.705 -0.01C5.101 8.413 3.773 11.89 3.773 16.003c-0.016 6.792 3.554 14.602 9.317 20.357l14.019 14.019A10.63 10.63 0 0 0 34.617 53.484a10.5 10.5 0 0 0 2.659 -0.341 2.664 2.664 0 0 1 0.668 -0.087 2.614 2.614 0 0 1 1.777 0.697l1.869 1.726a2.645 2.645 0 0 1 0.755 1.842v0.909a7.831 7.831 0 0 0 2.259 5.521l14.774 15.023 0.015 0.016a8.743 8.743 0 0 0 12.364 -12.365L49.611 44.28a0.656 0.656 0 0 1 0 -0.929L55.453 37.51a2.625 2.625 0 0 1 1.857 -0.769Z"/><path d="M34.617 58.734a15.967 15.967 0 0 1 -11.215 -4.635l-2.274 -2.274a1.313 1.313 0 0 0 -1.854 0l-13.945 13.873c-2.486 2.486 -3.373 6.144 -2.143 9.727a5.025 5.025 0 0 0 0.244 0.591C5.086 79.406 8.298 81.375 11.813 81.375a9.135 9.135 0 0 0 6.503 -2.697L36.914 59.991a0.769 0.769 0 0 0 0.217 -0.61l0 -0.043a0.76 0.76 0 0 0 -0.845 -0.701A15.929 15.929 0 0 1 34.617 58.734Z"/></svg>
