<?xml version="1.0" standalone="no"?>
<!DOCTYPE svg PUBLIC "-//W3C//DTD SVG 20010904//EN"
 "http://www.w3.org/TR/2001/REC-SVG-20010904/DTD/svg10.dtd">
<svg version="1.0" xmlns="http://www.w3.org/2000/svg"
 width="320.000000pt" height="320.000000pt" viewBox="0 0 320.000000 320.000000"
 preserveAspectRatio="xMidYMid meet">
<metadata>
Created by potrace 1.11, written by Peter Selinger 2001-2013
</metadata>
<g transform="translate(0.000000,320.000000) scale(0.100000,-0.100000)"
fill="#000000" stroke="none">
<path d="M1346 3055 c3 -11 7 -27 9 -35 2 -8 8 -37 15 -64 24 -107 9 -218 -42
-321 -50 -99 -178 -276 -297 -410 -231 -261 -324 -389 -407 -555 -171 -345
-159 -741 32 -1048 53 -85 171 -208 260 -274 147 -107 377 -191 585 -213 l56
-6 -2 43 c-2 24 -3 45 -4 48 -1 3 -21 6 -46 8 -25 1 -86 15 -135 31 -162 52
-293 142 -384 263 -113 152 -150 268 -150 463 0 144 15 216 66 323 27 58 129
196 182 248 19 18 114 125 174 193 104 121 207 304 243 436 34 121 32 333 -4
468 -23 87 -73 233 -111 322 -22 51 -47 101 -40 80z"/>
<path d="M1802 2943 c-106 -274 -131 -383 -127 -558 2 -66 6 -131 9 -144 51
-220 161 -398 408 -659 144 -153 223 -278 253 -403 97 -407 -116 -792 -510
-919 -50 -16 -110 -30 -133 -33 -52 -4 -57 -9 -57 -59 l-1 -40 56 7 c458 55
810 311 936 682 52 154 63 222 59 368 -4 180 -39 324 -120 485 -74 151 -147
254 -320 455 -226 262 -323 392 -383 511 -28 55 -59 171 -56 209 7 86 15 136
29 175 8 24 13 45 11 47 -2 3 -26 -53 -54 -124z"/>
<path d="M1590 2210 c0 -33 -66 -194 -113 -275 -70 -120 -184 -264 -347 -435
-126 -133 -184 -238 -215 -391 -17 -81 -16 -201 1 -269 3 -14 8 -36 11 -50 3
-14 25 -68 50 -120 38 -79 59 -107 132 -181 74 -73 102 -94 181 -132 121 -57
180 -71 310 -71 126 0 203 18 320 76 68 33 102 59 171 127 71 72 93 102 131
181 26 52 49 109 52 125 4 17 9 41 12 55 19 91 11 264 -16 334 -59 155 -88
199 -214 330 -54 56 -164 179 -210 236 -42 51 -128 184 -156 241 -17 32 -43
98 -59 145 -31 92 -41 110 -41 74z m125 -675 c205 -43 371 -196 431 -400 27
-91 25 -231 -6 -324 -66 -206 -236 -352 -452 -388 -78 -14 -98 -14 -176 0
-161 27 -292 110 -379 239 -69 103 -98 197 -97 318 0 162 52 288 165 401 135
136 326 193 514 154z"/>
</g>
</svg>
